<svg xmlns="http://www.w3.org/2000/svg" xmlns:xlink="http://www.w3.org/1999/xlink" width="328" zoomAndPan="magnify" viewBox="0 0 246 98.999996" height="132" preserveAspectRatio="xMidYMid meet" version="1.0"><defs><g/></defs><g fill="#0097b2" fill-opacity="1"><g transform="translate(21.600351, 63.276613)"><g><path d="M 3.078125 0 L 3.078125 -44.03125 L 12.140625 -44.03125 L 12.140625 0 Z M 3.078125 0 "/></g></g></g><g fill="#0097b2" fill-opacity="1"><g transform="translate(31.992392, 63.276613)"><g><path d="M 29.640625 -11.875 L 10.59375 -11.875 C 10.59375 -10.03125 11.191406 -8.664062 12.390625 -7.78125 C 13.585938 -6.894531 14.882812 -6.453125 16.28125 -6.453125 C 17.75 -6.453125 18.910156 -6.644531 19.765625 -7.03125 C 20.617188 -7.425781 21.59375 -8.207031 22.6875 -9.375 L 29.234375 -6.09375 C 26.503906 -1.519531 21.960938 0.765625 15.609375 0.765625 C 11.648438 0.765625 8.253906 -0.585938 5.421875 -3.296875 C 2.585938 -6.015625 1.171875 -9.285156 1.171875 -13.109375 C 1.171875 -16.929688 2.585938 -20.207031 5.421875 -22.9375 C 8.253906 -25.664062 11.648438 -27.03125 15.609375 -27.03125 C 19.773438 -27.03125 23.164062 -25.828125 25.78125 -23.421875 C 28.394531 -21.015625 29.703125 -17.578125 29.703125 -13.109375 C 29.703125 -12.492188 29.679688 -12.082031 29.640625 -11.875 Z M 10.859375 -16.890625 L 20.84375 -16.890625 C 20.632812 -18.253906 20.09375 -19.300781 19.21875 -20.03125 C 18.351562 -20.769531 17.238281 -21.140625 15.875 -21.140625 C 14.375 -21.140625 13.175781 -20.75 12.28125 -19.96875 C 11.394531 -19.1875 10.921875 -18.160156 10.859375 -16.890625 Z M 10.859375 -16.890625 "/></g></g></g><g fill="#0097b2" fill-opacity="1"><g transform="translate(58.051406, 63.276613)"><g><path d="M 4.859375 -3.25 C 2.398438 -5.925781 1.171875 -9.207031 1.171875 -13.09375 C 1.171875 -16.988281 2.398438 -20.285156 4.859375 -22.984375 C 7.316406 -25.679688 10.441406 -27.03125 14.234375 -27.03125 C 17.710938 -27.03125 20.582031 -25.941406 22.84375 -23.765625 L 22.84375 -26.265625 L 31.90625 -26.265625 L 31.90625 0 L 22.9375 0 L 22.9375 -2.96875 L 22.84375 -2.96875 C 20.582031 -0.476562 17.710938 0.765625 14.234375 0.765625 C 10.441406 0.765625 7.316406 -0.570312 4.859375 -3.25 Z M 12.5625 -17.5625 C 11.382812 -16.40625 10.796875 -14.921875 10.796875 -13.109375 C 10.796875 -11.296875 11.359375 -9.816406 12.484375 -8.671875 C 13.617188 -7.535156 15.109375 -6.96875 16.953125 -6.96875 C 18.722656 -6.96875 20.179688 -7.546875 21.328125 -8.703125 C 22.472656 -9.867188 23.046875 -11.335938 23.046875 -13.109375 C 23.046875 -14.921875 22.457031 -16.40625 21.28125 -17.5625 C 20.101562 -18.71875 18.660156 -19.296875 16.953125 -19.296875 C 15.210938 -19.296875 13.75 -18.71875 12.5625 -17.5625 Z M 12.5625 -17.5625 "/></g></g></g><g fill="#0097b2" fill-opacity="1"><g transform="translate(88.206362, 63.276613)"><g><path d="M 3.078125 0 L 3.078125 -26.265625 L 12.140625 -26.265625 L 12.140625 -22.484375 L 12.234375 -22.484375 C 12.304688 -22.617188 12.414062 -22.785156 12.5625 -22.984375 C 12.71875 -23.191406 13.050781 -23.550781 13.5625 -24.0625 C 14.082031 -24.570312 14.628906 -25.03125 15.203125 -25.4375 C 15.785156 -25.851562 16.535156 -26.222656 17.453125 -26.546875 C 18.378906 -26.867188 19.320312 -27.03125 20.28125 -27.03125 C 21.269531 -27.03125 22.238281 -26.894531 23.1875 -26.625 C 24.144531 -26.351562 24.847656 -26.082031 25.296875 -25.8125 L 26.015625 -25.390625 L 22.21875 -17.71875 C 21.09375 -18.675781 19.523438 -19.15625 17.515625 -19.15625 C 16.421875 -19.15625 15.476562 -18.914062 14.6875 -18.4375 C 13.90625 -17.957031 13.351562 -17.375 13.03125 -16.6875 C 12.707031 -16.007812 12.476562 -15.429688 12.34375 -14.953125 C 12.207031 -14.472656 12.140625 -14.097656 12.140625 -13.828125 L 12.140625 0 Z M 3.078125 0 "/></g></g></g><g fill="#0097b2" fill-opacity="1"><g transform="translate(108.889456, 63.276613)"><g><path d="M 3.078125 0 L 3.078125 -26.265625 L 12.140625 -26.265625 L 12.140625 -23.5 L 12.234375 -23.5 C 14.585938 -25.851562 17.097656 -27.03125 19.765625 -27.03125 C 21.054688 -27.03125 22.34375 -26.859375 23.625 -26.515625 C 24.90625 -26.179688 26.132812 -25.65625 27.3125 -24.9375 C 28.488281 -24.21875 29.441406 -23.203125 30.171875 -21.890625 C 30.910156 -20.578125 31.28125 -19.050781 31.28125 -17.3125 L 31.28125 0 L 22.21875 0 L 22.21875 -14.84375 C 22.21875 -16.207031 21.78125 -17.398438 20.90625 -18.421875 C 20.039062 -19.453125 18.910156 -19.96875 17.515625 -19.96875 C 16.148438 -19.96875 14.910156 -19.4375 13.796875 -18.375 C 12.691406 -17.320312 12.140625 -16.144531 12.140625 -14.84375 L 12.140625 0 Z M 3.078125 0 "/></g></g></g><g fill="#0097b2" fill-opacity="1"><g transform="translate(137.918022, 63.276613)"><g/></g></g><g fill="#0097b2" fill-opacity="1"><g transform="translate(147.081283, 63.276613)"><g><path d="M 11.625 -26.265625 L 11.625 -13.78125 C 11.625 -11.175781 12.015625 -9.328125 12.796875 -8.234375 C 13.585938 -7.148438 14.921875 -6.609375 16.796875 -6.609375 C 18.671875 -6.609375 20 -7.148438 20.78125 -8.234375 C 21.570312 -9.328125 21.96875 -11.175781 21.96875 -13.78125 L 21.96875 -26.265625 L 31.03125 -26.265625 L 31.03125 -11.578125 C 31.03125 -7.203125 29.894531 -4.050781 27.625 -2.125 C 25.351562 -0.195312 21.742188 0.765625 16.796875 0.765625 C 11.847656 0.765625 8.238281 -0.195312 5.96875 -2.125 C 3.695312 -4.050781 2.5625 -7.203125 2.5625 -11.578125 L 2.5625 -26.265625 Z M 11.625 -26.265625 "/></g></g></g><g fill="#0097b2" fill-opacity="1"><g transform="translate(175.853856, 63.276613)"><g><path d="M 30.109375 -23.015625 C 32.566406 -20.335938 33.796875 -17.050781 33.796875 -13.15625 C 33.796875 -9.269531 32.566406 -5.976562 30.109375 -3.28125 C 27.648438 -0.582031 24.523438 0.765625 20.734375 0.765625 C 17.253906 0.765625 14.390625 -0.328125 12.140625 -2.515625 L 12.140625 13.3125 L 3.078125 13.3125 L 3.078125 -26.265625 L 12.03125 -26.265625 L 12.03125 -23.296875 L 12.140625 -23.296875 C 14.390625 -25.785156 17.253906 -27.03125 20.734375 -27.03125 C 24.523438 -27.03125 27.648438 -25.691406 30.109375 -23.015625 Z M 22.40625 -8.703125 C 23.582031 -9.867188 24.171875 -11.351562 24.171875 -13.15625 C 24.171875 -14.96875 23.601562 -16.441406 22.46875 -17.578125 C 21.34375 -18.722656 19.863281 -19.296875 18.03125 -19.296875 C 16.25 -19.296875 14.785156 -18.71875 13.640625 -17.5625 C 12.503906 -16.40625 11.9375 -14.9375 11.9375 -13.15625 C 11.9375 -11.351562 12.523438 -9.867188 13.703125 -8.703125 C 14.878906 -7.546875 16.320312 -6.96875 18.03125 -6.96875 C 19.769531 -6.96875 21.226562 -7.546875 22.40625 -8.703125 Z M 22.40625 -8.703125 "/></g></g></g><g fill="#0097b2" fill-opacity="1"><g transform="translate(206.008807, 63.276613)"><g><path d="M 8.90625 -10.953125 C 10.539062 -10.953125 11.929688 -10.378906 13.078125 -9.234375 C 14.222656 -8.097656 14.796875 -6.707031 14.796875 -5.0625 C 14.796875 -3.457031 14.222656 -2.082031 13.078125 -0.9375 C 11.929688 0.195312 10.539062 0.765625 8.90625 0.765625 C 7.300781 0.765625 5.925781 0.195312 4.78125 -0.9375 C 3.644531 -2.082031 3.078125 -3.457031 3.078125 -5.0625 C 3.078125 -6.707031 3.644531 -8.097656 4.78125 -9.234375 C 5.925781 -10.378906 7.300781 -10.953125 8.90625 -10.953125 Z M 8.90625 -10.953125 "/></g></g></g><g fill="#211c1d" fill-opacity="1"><g transform="translate(54.206302, 77.185898)"><g><path d="M 4.765625 -5.515625 C 4.941406 -5.515625 5.085938 -5.453125 5.203125 -5.328125 C 5.328125 -5.210938 5.390625 -5.066406 5.390625 -4.890625 L 5.390625 -0.5 C 5.390625 0.382812 5.144531 1.03125 4.65625 1.4375 C 4.175781 1.851562 3.535156 2.0625 2.734375 2.0625 C 2.492188 2.0625 2.253906 2.039062 2.015625 2 C 1.773438 1.96875 1.578125 1.921875 1.421875 1.859375 C 1.085938 1.710938 0.921875 1.515625 0.921875 1.265625 C 0.921875 1.210938 0.929688 1.15625 0.953125 1.09375 C 0.992188 0.9375 1.0625 0.816406 1.15625 0.734375 C 1.257812 0.660156 1.367188 0.625 1.484375 0.625 C 1.554688 0.625 1.625 0.632812 1.6875 0.65625 C 1.726562 0.675781 1.804688 0.707031 1.921875 0.75 C 2.046875 0.800781 2.175781 0.84375 2.3125 0.875 C 2.445312 0.90625 2.585938 0.921875 2.734375 0.921875 C 3.222656 0.921875 3.582031 0.816406 3.8125 0.609375 C 4.039062 0.398438 4.15625 0.0390625 4.15625 -0.46875 L 4.15625 -0.5625 C 3.800781 -0.113281 3.242188 0.109375 2.484375 0.109375 C 2.128906 0.109375 1.8125 0.0234375 1.53125 -0.140625 C 1.257812 -0.316406 1.046875 -0.550781 0.890625 -0.84375 C 0.742188 -1.144531 0.671875 -1.488281 0.671875 -1.875 L 0.671875 -4.890625 C 0.671875 -5.066406 0.726562 -5.210938 0.84375 -5.328125 C 0.957031 -5.453125 1.109375 -5.515625 1.296875 -5.515625 C 1.472656 -5.515625 1.617188 -5.453125 1.734375 -5.328125 C 1.847656 -5.210938 1.90625 -5.066406 1.90625 -4.890625 L 1.90625 -2.25 C 1.90625 -1.8125 2 -1.5 2.1875 -1.3125 C 2.375 -1.125 2.648438 -1.03125 3.015625 -1.03125 C 3.378906 -1.03125 3.65625 -1.132812 3.84375 -1.34375 C 4.039062 -1.550781 4.140625 -1.851562 4.140625 -2.25 L 4.140625 -4.890625 C 4.140625 -5.066406 4.195312 -5.210938 4.3125 -5.328125 C 4.4375 -5.453125 4.585938 -5.515625 4.765625 -5.515625 Z M 4.765625 -5.515625 "/></g></g></g><g fill="#211c1d" fill-opacity="1"><g transform="translate(62.324571, 77.185898)"><g><path d="M 5.96875 -2.75 C 5.96875 -2.195312 5.84375 -1.703125 5.59375 -1.265625 C 5.351562 -0.835938 5.015625 -0.5 4.578125 -0.25 C 4.148438 -0.0078125 3.679688 0.109375 3.171875 0.109375 C 2.640625 0.109375 2.160156 -0.0078125 1.734375 -0.25 C 1.316406 -0.5 0.984375 -0.835938 0.734375 -1.265625 C 0.484375 -1.703125 0.359375 -2.195312 0.359375 -2.75 C 0.359375 -3.300781 0.484375 -3.796875 0.734375 -4.234375 C 0.984375 -4.671875 1.316406 -5.007812 1.734375 -5.25 C 2.160156 -5.5 2.640625 -5.625 3.171875 -5.625 C 3.679688 -5.625 4.148438 -5.5 4.578125 -5.25 C 5.015625 -5.007812 5.351562 -4.671875 5.59375 -4.234375 C 5.84375 -3.796875 5.96875 -3.300781 5.96875 -2.75 Z M 4.734375 -2.75 C 4.734375 -3.09375 4.660156 -3.394531 4.515625 -3.65625 C 4.378906 -3.914062 4.191406 -4.117188 3.953125 -4.265625 C 3.710938 -4.410156 3.453125 -4.484375 3.171875 -4.484375 C 2.878906 -4.484375 2.613281 -4.410156 2.375 -4.265625 C 2.132812 -4.117188 1.941406 -3.914062 1.796875 -3.65625 C 1.660156 -3.394531 1.59375 -3.09375 1.59375 -2.75 C 1.59375 -2.414062 1.660156 -2.117188 1.796875 -1.859375 C 1.941406 -1.597656 2.132812 -1.394531 2.375 -1.25 C 2.613281 -1.101562 2.878906 -1.03125 3.171875 -1.03125 C 3.453125 -1.03125 3.710938 -1.101562 3.953125 -1.25 C 4.191406 -1.394531 4.378906 -1.597656 4.515625 -1.859375 C 4.660156 -2.117188 4.734375 -2.414062 4.734375 -2.75 Z M 4.734375 -2.75 "/></g></g></g><g fill="#211c1d" fill-opacity="1"><g transform="translate(70.720966, 77.185898)"><g><path d="M 4.765625 -5.515625 C 4.941406 -5.515625 5.085938 -5.453125 5.203125 -5.328125 C 5.328125 -5.210938 5.390625 -5.066406 5.390625 -4.890625 L 5.390625 -2.265625 C 5.390625 -1.523438 5.179688 -0.941406 4.765625 -0.515625 C 4.359375 -0.0976562 3.773438 0.109375 3.015625 0.109375 C 2.265625 0.109375 1.6875 -0.0976562 1.28125 -0.515625 C 0.875 -0.941406 0.671875 -1.523438 0.671875 -2.265625 L 0.671875 -4.890625 C 0.671875 -5.066406 0.726562 -5.210938 0.84375 -5.328125 C 0.957031 -5.453125 1.109375 -5.515625 1.296875 -5.515625 C 1.472656 -5.515625 1.617188 -5.453125 1.734375 -5.328125 C 1.847656 -5.210938 1.90625 -5.066406 1.90625 -4.890625 L 1.90625 -2.265625 C 1.90625 -1.847656 2 -1.535156 2.1875 -1.328125 C 2.375 -1.128906 2.648438 -1.03125 3.015625 -1.03125 C 3.398438 -1.03125 3.679688 -1.128906 3.859375 -1.328125 C 4.046875 -1.535156 4.140625 -1.847656 4.140625 -2.265625 L 4.140625 -4.890625 C 4.140625 -5.066406 4.195312 -5.210938 4.3125 -5.328125 C 4.4375 -5.453125 4.585938 -5.515625 4.765625 -5.515625 Z M 4.765625 -5.515625 "/></g></g></g><g fill="#211c1d" fill-opacity="1"><g transform="translate(78.839235, 77.185898)"><g><path d="M 3.53125 -5.625 C 3.738281 -5.625 3.910156 -5.5625 4.046875 -5.4375 C 4.191406 -5.320312 4.265625 -5.1875 4.265625 -5.03125 C 4.265625 -4.820312 4.207031 -4.660156 4.09375 -4.546875 C 3.988281 -4.441406 3.863281 -4.390625 3.71875 -4.390625 C 3.613281 -4.390625 3.492188 -4.414062 3.359375 -4.46875 C 3.335938 -4.46875 3.289062 -4.476562 3.21875 -4.5 C 3.144531 -4.519531 3.066406 -4.53125 2.984375 -4.53125 C 2.804688 -4.53125 2.632812 -4.472656 2.46875 -4.359375 C 2.3125 -4.253906 2.175781 -4.085938 2.0625 -3.859375 C 1.957031 -3.640625 1.90625 -3.378906 1.90625 -3.078125 L 1.90625 -0.625 C 1.90625 -0.445312 1.847656 -0.296875 1.734375 -0.171875 C 1.617188 -0.0546875 1.472656 0 1.296875 0 C 1.109375 0 0.957031 -0.0546875 0.84375 -0.171875 C 0.726562 -0.296875 0.671875 -0.445312 0.671875 -0.625 L 0.671875 -4.890625 C 0.671875 -5.066406 0.726562 -5.210938 0.84375 -5.328125 C 0.957031 -5.453125 1.109375 -5.515625 1.296875 -5.515625 C 1.472656 -5.515625 1.617188 -5.453125 1.734375 -5.328125 C 1.847656 -5.210938 1.90625 -5.066406 1.90625 -4.890625 L 1.90625 -4.75 C 2.0625 -5.03125 2.285156 -5.242188 2.578125 -5.390625 C 2.878906 -5.546875 3.195312 -5.625 3.53125 -5.625 Z M 3.53125 -5.625 "/></g></g></g><g fill="#211c1d" fill-opacity="1"><g transform="translate(85.381493, 77.185898)"><g/></g></g><g fill="#211c1d" fill-opacity="1"><g transform="translate(90.337428, 77.185898)"><g><path d="M 5.140625 -5.515625 C 5.316406 -5.515625 5.460938 -5.457031 5.578125 -5.34375 C 5.691406 -5.226562 5.75 -5.078125 5.75 -4.890625 L 5.75 1.4375 C 5.75 1.613281 5.691406 1.757812 5.578125 1.875 C 5.460938 2 5.316406 2.0625 5.140625 2.0625 C 4.960938 2.0625 4.8125 2 4.6875 1.875 C 4.570312 1.757812 4.515625 1.613281 4.515625 1.4375 L 4.515625 -0.609375 C 4.347656 -0.410156 4.113281 -0.238281 3.8125 -0.09375 C 3.519531 0.0390625 3.210938 0.109375 2.890625 0.109375 C 2.421875 0.109375 1.992188 -0.0078125 1.609375 -0.25 C 1.222656 -0.5 0.914062 -0.835938 0.6875 -1.265625 C 0.46875 -1.703125 0.359375 -2.195312 0.359375 -2.75 C 0.359375 -3.300781 0.46875 -3.796875 0.6875 -4.234375 C 0.90625 -4.671875 1.207031 -5.007812 1.59375 -5.25 C 1.976562 -5.5 2.398438 -5.625 2.859375 -5.625 C 3.191406 -5.625 3.503906 -5.5625 3.796875 -5.4375 C 4.085938 -5.3125 4.328125 -5.15625 4.515625 -4.96875 C 4.535156 -5.125 4.601562 -5.253906 4.71875 -5.359375 C 4.832031 -5.460938 4.972656 -5.515625 5.140625 -5.515625 Z M 3.046875 -1.03125 C 3.492188 -1.03125 3.859375 -1.191406 4.140625 -1.515625 C 4.421875 -1.847656 4.5625 -2.257812 4.5625 -2.75 C 4.5625 -3.25 4.421875 -3.660156 4.140625 -3.984375 C 3.859375 -4.316406 3.492188 -4.484375 3.046875 -4.484375 C 2.609375 -4.484375 2.25 -4.316406 1.96875 -3.984375 C 1.6875 -3.660156 1.546875 -3.25 1.546875 -2.75 C 1.546875 -2.257812 1.679688 -1.847656 1.953125 -1.515625 C 2.234375 -1.191406 2.597656 -1.03125 3.046875 -1.03125 Z M 3.046875 -1.03125 "/></g></g></g><g fill="#211c1d" fill-opacity="1"><g transform="translate(98.82652, 77.185898)"><g><path d="M 4.765625 -5.515625 C 4.941406 -5.515625 5.085938 -5.453125 5.203125 -5.328125 C 5.328125 -5.210938 5.390625 -5.066406 5.390625 -4.890625 L 5.390625 -2.265625 C 5.390625 -1.523438 5.179688 -0.941406 4.765625 -0.515625 C 4.359375 -0.0976562 3.773438 0.109375 3.015625 0.109375 C 2.265625 0.109375 1.6875 -0.0976562 1.28125 -0.515625 C 0.875 -0.941406 0.671875 -1.523438 0.671875 -2.265625 L 0.671875 -4.890625 C 0.671875 -5.066406 0.726562 -5.210938 0.84375 -5.328125 C 0.957031 -5.453125 1.109375 -5.515625 1.296875 -5.515625 C 1.472656 -5.515625 1.617188 -5.453125 1.734375 -5.328125 C 1.847656 -5.210938 1.90625 -5.066406 1.90625 -4.890625 L 1.90625 -2.265625 C 1.90625 -1.847656 2 -1.535156 2.1875 -1.328125 C 2.375 -1.128906 2.648438 -1.03125 3.015625 -1.03125 C 3.398438 -1.03125 3.679688 -1.128906 3.859375 -1.328125 C 4.046875 -1.535156 4.140625 -1.847656 4.140625 -2.265625 L 4.140625 -4.890625 C 4.140625 -5.066406 4.195312 -5.210938 4.3125 -5.328125 C 4.4375 -5.453125 4.585938 -5.515625 4.765625 -5.515625 Z M 4.765625 -5.515625 "/></g></g></g><g fill="#211c1d" fill-opacity="1"><g transform="translate(106.944792, 77.185898)"><g><path d="M 1.828125 -0.625 C 1.828125 -0.445312 1.769531 -0.296875 1.65625 -0.171875 C 1.539062 -0.0546875 1.394531 0 1.21875 0 C 1.039062 0 0.890625 -0.0546875 0.765625 -0.171875 C 0.648438 -0.296875 0.59375 -0.445312 0.59375 -0.625 L 0.59375 -4.890625 C 0.59375 -5.066406 0.648438 -5.210938 0.765625 -5.328125 C 0.890625 -5.453125 1.039062 -5.515625 1.21875 -5.515625 C 1.394531 -5.515625 1.539062 -5.453125 1.65625 -5.328125 C 1.769531 -5.210938 1.828125 -5.066406 1.828125 -4.890625 Z M 1.203125 -6.1875 C 0.960938 -6.1875 0.796875 -6.222656 0.703125 -6.296875 C 0.609375 -6.378906 0.5625 -6.515625 0.5625 -6.703125 L 0.5625 -6.90625 C 0.5625 -7.09375 0.613281 -7.222656 0.71875 -7.296875 C 0.820312 -7.378906 0.984375 -7.421875 1.203125 -7.421875 C 1.453125 -7.421875 1.625 -7.378906 1.71875 -7.296875 C 1.8125 -7.222656 1.859375 -7.09375 1.859375 -6.90625 L 1.859375 -6.703125 C 1.859375 -6.503906 1.804688 -6.367188 1.703125 -6.296875 C 1.609375 -6.222656 1.441406 -6.1875 1.203125 -6.1875 Z M 1.203125 -6.1875 "/></g></g></g><g fill="#211c1d" fill-opacity="1"><g transform="translate(111.447493, 77.185898)"><g><path d="M 4.1875 -1.140625 C 4.351562 -1.140625 4.488281 -1.082031 4.59375 -0.96875 C 4.707031 -0.863281 4.765625 -0.726562 4.765625 -0.5625 C 4.765625 -0.40625 4.707031 -0.269531 4.59375 -0.15625 C 4.488281 -0.0507812 4.351562 0 4.1875 0 L 0.859375 0 C 0.703125 0 0.570312 -0.0546875 0.46875 -0.171875 C 0.363281 -0.285156 0.3125 -0.40625 0.3125 -0.53125 C 0.3125 -0.65625 0.320312 -0.753906 0.34375 -0.828125 C 0.375 -0.910156 0.425781 -1.003906 0.5 -1.109375 L 2.953125 -4.28125 L 0.953125 -4.28125 C 0.796875 -4.28125 0.660156 -4.332031 0.546875 -4.4375 C 0.429688 -4.550781 0.375 -4.691406 0.375 -4.859375 C 0.375 -5.015625 0.429688 -5.144531 0.546875 -5.25 C 0.660156 -5.363281 0.796875 -5.421875 0.953125 -5.421875 L 4.140625 -5.421875 C 4.285156 -5.421875 4.410156 -5.363281 4.515625 -5.25 C 4.628906 -5.144531 4.6875 -5.015625 4.6875 -4.859375 C 4.6875 -4.753906 4.675781 -4.664062 4.65625 -4.59375 C 4.632812 -4.519531 4.582031 -4.4375 4.5 -4.34375 L 2.03125 -1.140625 Z M 4.1875 -1.140625 "/></g></g></g><g fill="#211c1d" fill-opacity="1"><g transform="translate(118.504777, 77.185898)"><g/></g></g><g fill="#211c1d" fill-opacity="1"><g transform="translate(123.46071, 77.185898)"><g><path d="M 5.140625 -5.625 C 5.316406 -5.625 5.460938 -5.5625 5.578125 -5.4375 C 5.691406 -5.320312 5.75 -5.171875 5.75 -4.984375 L 5.75 -0.625 C 5.75 -0.445312 5.691406 -0.296875 5.578125 -0.171875 C 5.460938 -0.0546875 5.316406 0 5.140625 0 C 4.960938 0 4.816406 -0.0546875 4.703125 -0.171875 C 4.585938 -0.285156 4.523438 -0.4375 4.515625 -0.625 C 4.347656 -0.414062 4.113281 -0.238281 3.8125 -0.09375 C 3.519531 0.0390625 3.210938 0.109375 2.890625 0.109375 C 2.421875 0.109375 1.992188 -0.0078125 1.609375 -0.25 C 1.222656 -0.5 0.914062 -0.835938 0.6875 -1.265625 C 0.46875 -1.703125 0.359375 -2.195312 0.359375 -2.75 C 0.359375 -3.300781 0.46875 -3.796875 0.6875 -4.234375 C 0.90625 -4.671875 1.207031 -5.007812 1.59375 -5.25 C 1.976562 -5.5 2.398438 -5.625 2.859375 -5.625 C 3.191406 -5.625 3.5 -5.5625 3.78125 -5.4375 C 4.070312 -5.320312 4.316406 -5.171875 4.515625 -4.984375 C 4.515625 -5.171875 4.570312 -5.320312 4.6875 -5.4375 C 4.8125 -5.5625 4.960938 -5.625 5.140625 -5.625 Z M 3.046875 -1.03125 C 3.492188 -1.03125 3.859375 -1.191406 4.140625 -1.515625 C 4.421875 -1.847656 4.5625 -2.257812 4.5625 -2.75 C 4.5625 -3.25 4.421875 -3.660156 4.140625 -3.984375 C 3.859375 -4.316406 3.492188 -4.484375 3.046875 -4.484375 C 2.609375 -4.484375 2.25 -4.316406 1.96875 -3.984375 C 1.6875 -3.660156 1.546875 -3.25 1.546875 -2.75 C 1.546875 -2.257812 1.679688 -1.847656 1.953125 -1.515625 C 2.234375 -1.191406 2.597656 -1.03125 3.046875 -1.03125 Z M 3.046875 -1.03125 "/></g></g></g><g fill="#211c1d" fill-opacity="1"><g transform="translate(131.949799, 77.185898)"><g><path d="M 3.53125 -5.625 C 4 -5.625 4.425781 -5.5 4.8125 -5.25 C 5.195312 -5.007812 5.5 -4.671875 5.71875 -4.234375 C 5.945312 -3.804688 6.0625 -3.316406 6.0625 -2.765625 C 6.0625 -2.210938 5.953125 -1.71875 5.734375 -1.28125 C 5.515625 -0.84375 5.210938 -0.5 4.828125 -0.25 C 4.453125 -0.0078125 4.03125 0.109375 3.5625 0.109375 C 3.238281 0.109375 2.929688 0.0390625 2.640625 -0.09375 C 2.347656 -0.226562 2.101562 -0.394531 1.90625 -0.59375 L 1.90625 1.4375 C 1.90625 1.613281 1.847656 1.757812 1.734375 1.875 C 1.617188 2 1.472656 2.0625 1.296875 2.0625 C 1.109375 2.0625 0.957031 2.003906 0.84375 1.890625 C 0.726562 1.773438 0.671875 1.625 0.671875 1.4375 L 0.671875 -4.890625 C 0.671875 -5.066406 0.726562 -5.210938 0.84375 -5.328125 C 0.957031 -5.453125 1.109375 -5.515625 1.296875 -5.515625 C 1.472656 -5.515625 1.617188 -5.453125 1.734375 -5.328125 C 1.847656 -5.210938 1.90625 -5.066406 1.90625 -4.890625 L 1.90625 -4.84375 C 2.070312 -5.050781 2.300781 -5.234375 2.59375 -5.390625 C 2.894531 -5.546875 3.207031 -5.625 3.53125 -5.625 Z M 3.375 -1.03125 C 3.8125 -1.03125 4.171875 -1.191406 4.453125 -1.515625 C 4.734375 -1.847656 4.875 -2.265625 4.875 -2.765625 C 4.875 -3.253906 4.734375 -3.660156 4.453125 -3.984375 C 4.179688 -4.316406 3.820312 -4.484375 3.375 -4.484375 C 2.925781 -4.484375 2.5625 -4.316406 2.28125 -3.984375 C 2 -3.660156 1.859375 -3.253906 1.859375 -2.765625 C 1.859375 -2.265625 2 -1.847656 2.28125 -1.515625 C 2.5625 -1.191406 2.925781 -1.03125 3.375 -1.03125 Z M 3.375 -1.03125 "/></g></g></g><g fill="#211c1d" fill-opacity="1"><g transform="translate(140.438888, 77.185898)"><g><path d="M 3.53125 -5.625 C 4 -5.625 4.425781 -5.5 4.8125 -5.25 C 5.195312 -5.007812 5.5 -4.671875 5.71875 -4.234375 C 5.945312 -3.804688 6.0625 -3.316406 6.0625 -2.765625 C 6.0625 -2.210938 5.953125 -1.71875 5.734375 -1.28125 C 5.515625 -0.84375 5.210938 -0.5 4.828125 -0.25 C 4.453125 -0.0078125 4.03125 0.109375 3.5625 0.109375 C 3.238281 0.109375 2.929688 0.0390625 2.640625 -0.09375 C 2.347656 -0.226562 2.101562 -0.394531 1.90625 -0.59375 L 1.90625 1.4375 C 1.90625 1.613281 1.847656 1.757812 1.734375 1.875 C 1.617188 2 1.472656 2.0625 1.296875 2.0625 C 1.109375 2.0625 0.957031 2.003906 0.84375 1.890625 C 0.726562 1.773438 0.671875 1.625 0.671875 1.4375 L 0.671875 -4.890625 C 0.671875 -5.066406 0.726562 -5.210938 0.84375 -5.328125 C 0.957031 -5.453125 1.109375 -5.515625 1.296875 -5.515625 C 1.472656 -5.515625 1.617188 -5.453125 1.734375 -5.328125 C 1.847656 -5.210938 1.90625 -5.066406 1.90625 -4.890625 L 1.90625 -4.84375 C 2.070312 -5.050781 2.300781 -5.234375 2.59375 -5.390625 C 2.894531 -5.546875 3.207031 -5.625 3.53125 -5.625 Z M 3.375 -1.03125 C 3.8125 -1.03125 4.171875 -1.191406 4.453125 -1.515625 C 4.734375 -1.847656 4.875 -2.265625 4.875 -2.765625 C 4.875 -3.253906 4.734375 -3.660156 4.453125 -3.984375 C 4.179688 -4.316406 3.820312 -4.484375 3.375 -4.484375 C 2.925781 -4.484375 2.5625 -4.316406 2.28125 -3.984375 C 2 -3.660156 1.859375 -3.253906 1.859375 -2.765625 C 1.859375 -2.265625 2 -1.847656 2.28125 -1.515625 C 2.5625 -1.191406 2.925781 -1.03125 3.375 -1.03125 Z M 3.375 -1.03125 "/></g></g></g></svg>