<svg xmlns="http://www.w3.org/2000/svg" xmlns:xlink="http://www.w3.org/1999/xlink" width="467" zoomAndPan="magnify" viewBox="0 0 350.25 141.000003" height="188" preserveAspectRatio="xMidYMid meet" version="1.0"><defs><g/></defs><g fill="#0097b2" fill-opacity="1"><g transform="translate(31.426198, 89.538748)"><g><path d="M 4.34375 0 L 4.34375 -62.328125 L 17.171875 -62.328125 L 17.171875 0 Z M 4.34375 0 "/></g></g></g><g fill="#0097b2" fill-opacity="1"><g transform="translate(46.13132, 89.538748)"><g><path d="M 41.953125 -16.8125 L 15 -16.8125 C 15 -14.207031 15.84375 -12.273438 17.53125 -11.015625 C 19.226562 -9.753906 21.066406 -9.125 23.046875 -9.125 C 25.117188 -9.125 26.757812 -9.398438 27.96875 -9.953125 C 29.175781 -10.515625 30.554688 -11.617188 32.109375 -13.265625 L 41.375 -8.625 C 37.507812 -2.144531 31.085938 1.09375 22.109375 1.09375 C 16.503906 1.09375 11.695312 -0.828125 7.6875 -4.671875 C 3.675781 -8.515625 1.671875 -13.140625 1.671875 -18.546875 C 1.671875 -23.960938 3.675781 -28.601562 7.6875 -32.46875 C 11.695312 -36.332031 16.503906 -38.265625 22.109375 -38.265625 C 27.992188 -38.265625 32.785156 -36.5625 36.484375 -33.15625 C 40.179688 -29.75 42.03125 -24.878906 42.03125 -18.546875 C 42.03125 -17.679688 42.003906 -17.101562 41.953125 -16.8125 Z M 15.359375 -23.921875 L 29.5 -23.921875 C 29.207031 -25.847656 28.441406 -27.328125 27.203125 -28.359375 C 25.972656 -29.398438 24.394531 -29.921875 22.46875 -29.921875 C 20.34375 -29.921875 18.648438 -29.363281 17.390625 -28.25 C 16.140625 -27.144531 15.460938 -25.703125 15.359375 -23.921875 Z M 15.359375 -23.921875 "/></g></g></g><g fill="#0097b2" fill-opacity="1"><g transform="translate(83.005784, 89.538748)"><g><path d="M 6.890625 -4.59375 C 3.410156 -8.394531 1.671875 -13.046875 1.671875 -18.546875 C 1.671875 -24.054688 3.410156 -28.71875 6.890625 -32.53125 C 10.367188 -36.351562 14.785156 -38.265625 20.140625 -38.265625 C 25.066406 -38.265625 29.128906 -36.71875 32.328125 -33.625 L 32.328125 -37.171875 L 45.140625 -37.171875 L 45.140625 0 L 32.46875 0 L 32.46875 -4.203125 L 32.328125 -4.203125 C 29.128906 -0.671875 25.066406 1.09375 20.140625 1.09375 C 14.785156 1.09375 10.367188 -0.800781 6.890625 -4.59375 Z M 17.796875 -24.859375 C 16.128906 -23.210938 15.296875 -21.109375 15.296875 -18.546875 C 15.296875 -15.992188 16.09375 -13.90625 17.6875 -12.28125 C 19.28125 -10.664062 21.378906 -9.859375 23.984375 -9.859375 C 26.492188 -9.859375 28.554688 -10.675781 30.171875 -12.3125 C 31.796875 -13.957031 32.609375 -16.035156 32.609375 -18.546875 C 32.609375 -21.109375 31.773438 -23.210938 30.109375 -24.859375 C 28.441406 -26.503906 26.398438 -27.328125 23.984375 -27.328125 C 21.523438 -27.328125 19.460938 -26.503906 17.796875 -24.859375 Z M 17.796875 -24.859375 "/></g></g></g><g fill="#0097b2" fill-opacity="1"><g transform="translate(125.676158, 89.538748)"><g><path d="M 4.34375 0 L 4.34375 -37.171875 L 17.171875 -37.171875 L 17.171875 -31.8125 L 17.3125 -31.8125 C 17.414062 -32.007812 17.578125 -32.25 17.796875 -32.53125 C 18.015625 -32.820312 18.484375 -33.328125 19.203125 -34.046875 C 19.929688 -34.773438 20.703125 -35.429688 21.515625 -36.015625 C 22.335938 -36.597656 23.398438 -37.117188 24.703125 -37.578125 C 26.015625 -38.035156 27.347656 -38.265625 28.703125 -38.265625 C 30.097656 -38.265625 31.472656 -38.070312 32.828125 -37.6875 C 34.179688 -37.300781 35.171875 -36.914062 35.796875 -36.53125 L 36.8125 -35.9375 L 31.453125 -25.078125 C 29.859375 -26.429688 27.632812 -27.109375 24.78125 -27.109375 C 23.238281 -27.109375 21.910156 -26.769531 20.796875 -26.09375 C 19.679688 -25.414062 18.894531 -24.59375 18.4375 -23.625 C 17.976562 -22.65625 17.648438 -21.832031 17.453125 -21.15625 C 17.265625 -20.476562 17.171875 -19.945312 17.171875 -19.5625 L 17.171875 0 Z M 4.34375 0 "/></g></g></g><g fill="#0097b2" fill-opacity="1"><g transform="translate(154.943498, 89.538748)"><g><path d="M 4.34375 0 L 4.34375 -37.171875 L 17.171875 -37.171875 L 17.171875 -33.265625 L 17.3125 -33.265625 C 20.65625 -36.597656 24.207031 -38.265625 27.96875 -38.265625 C 29.8125 -38.265625 31.632812 -38.019531 33.4375 -37.53125 C 35.25 -37.050781 36.988281 -36.300781 38.65625 -35.28125 C 40.320312 -34.269531 41.675781 -32.832031 42.71875 -30.96875 C 43.757812 -29.113281 44.28125 -26.957031 44.28125 -24.5 L 44.28125 0 L 31.453125 0 L 31.453125 -21.015625 C 31.453125 -22.953125 30.832031 -24.644531 29.59375 -26.09375 C 28.363281 -27.539062 26.757812 -28.265625 24.78125 -28.265625 C 22.851562 -28.265625 21.101562 -27.515625 19.53125 -26.015625 C 17.957031 -24.515625 17.171875 -22.847656 17.171875 -21.015625 L 17.171875 0 Z M 4.34375 0 "/></g></g></g><g fill="#0097b2" fill-opacity="1"><g transform="translate(196.019989, 89.538748)"><g/></g></g><g fill="#0097b2" fill-opacity="1"><g transform="translate(208.98634, 89.538748)"><g><path d="M 16.453125 -37.171875 L 16.453125 -19.5 C 16.453125 -15.820312 17.003906 -13.207031 18.109375 -11.65625 C 19.222656 -10.113281 21.109375 -9.34375 23.765625 -9.34375 C 26.421875 -9.34375 28.304688 -10.113281 29.421875 -11.65625 C 30.535156 -13.207031 31.09375 -15.820312 31.09375 -19.5 L 31.09375 -37.171875 L 43.921875 -37.171875 L 43.921875 -16.375 C 43.921875 -10.195312 42.3125 -5.738281 39.09375 -3 C 35.882812 -0.269531 30.773438 1.09375 23.765625 1.09375 C 16.765625 1.09375 11.65625 -0.269531 8.4375 -3 C 5.226562 -5.738281 3.625 -10.195312 3.625 -16.375 L 3.625 -37.171875 Z M 16.453125 -37.171875 "/></g></g></g><g fill="#0097b2" fill-opacity="1"><g transform="translate(249.700592, 89.538748)"><g><path d="M 42.609375 -32.578125 C 46.085938 -28.785156 47.828125 -24.132812 47.828125 -18.625 C 47.828125 -13.113281 46.085938 -8.445312 42.609375 -4.625 C 39.128906 -0.8125 34.707031 1.09375 29.34375 1.09375 C 24.414062 1.09375 20.359375 -0.453125 17.171875 -3.546875 L 17.171875 18.84375 L 4.34375 18.84375 L 4.34375 -37.171875 L 17.03125 -37.171875 L 17.03125 -32.96875 L 17.171875 -32.96875 C 20.359375 -36.5 24.414062 -38.265625 29.34375 -38.265625 C 34.707031 -38.265625 39.128906 -36.367188 42.609375 -32.578125 Z M 31.703125 -12.3125 C 33.367188 -13.957031 34.203125 -16.0625 34.203125 -18.625 C 34.203125 -21.1875 33.40625 -23.273438 31.8125 -24.890625 C 30.21875 -26.515625 28.117188 -27.328125 25.515625 -27.328125 C 22.992188 -27.328125 20.925781 -26.503906 19.3125 -24.859375 C 17.695312 -23.210938 16.890625 -21.132812 16.890625 -18.625 C 16.890625 -16.0625 17.722656 -13.957031 19.390625 -12.3125 C 21.054688 -10.675781 23.097656 -9.859375 25.515625 -9.859375 C 27.972656 -9.859375 30.035156 -10.675781 31.703125 -12.3125 Z M 31.703125 -12.3125 "/></g></g></g><g fill="#0097b2" fill-opacity="1"><g transform="translate(292.370958, 89.538748)"><g><path d="M 12.609375 -15.515625 C 14.929688 -15.515625 16.898438 -14.703125 18.515625 -13.078125 C 20.128906 -11.460938 20.9375 -9.492188 20.9375 -7.171875 C 20.9375 -4.898438 20.128906 -2.953125 18.515625 -1.328125 C 16.898438 0.285156 14.929688 1.09375 12.609375 1.09375 C 10.335938 1.09375 8.390625 0.285156 6.765625 -1.328125 C 5.148438 -2.953125 4.34375 -4.898438 4.34375 -7.171875 C 4.34375 -9.492188 5.148438 -11.460938 6.765625 -13.078125 C 8.390625 -14.703125 10.335938 -15.515625 12.609375 -15.515625 Z M 12.609375 -15.515625 "/></g></g></g></svg>